<svg width="136" height="86" viewBox="0 0 136 86" fill="none" xmlns="http://www.w3.org/2000/svg">
<path d="M9.976 36.616C5.176 38.536 0.952 37.624 1 33.304C1.048 28.312 10.12 13.912 10.456 3.304C13.336 3.4 16.12 4.168 17.416 5.176C17.464 5.224 17.464 5.224 17.512 5.272C21.688 8.968 20.728 17.176 20.344 23.224C26.824 18.184 35.176 5.8 35.944 3.304C39.88 3.448 43.672 4.84 43.672 6.424C43.816 15.976 33.304 31.192 35.464 36.616C30.664 38.536 26.44 37.624 26.488 33.304C26.488 31.048 28.36 26.92 30.424 22.072C27.304 25.96 23.944 29.368 21.544 30.376C19.384 31.192 16.504 31 15.448 28.552C14.584 26.392 15.064 22.552 15.112 18.568C12.28 25.912 8.632 33.208 9.976 36.616ZM47.0504 32.536C49.9304 32.488 52.9544 28.12 54.1064 25.624C55.6904 22.168 56.1704 17.416 53.5304 17.416C50.6504 17.464 47.6264 21.64 46.4264 24.184C44.8904 27.592 44.4104 32.536 47.0504 32.536ZM45.4184 37.432C39.0344 37.768 35.8184 32.392 37.6424 25.576C39.4664 18.712 46.5224 12.52 55.1624 12.52C61.2584 12.28 64.7624 17.56 62.9384 24.328C61.1144 31.096 54.1064 37.432 45.4184 37.432ZM71.224 15.784C72.808 19.96 68.536 25.336 68.584 31.624C75.976 24.664 80.2 14.632 79.912 11.992C79.864 11.656 87.304 14.152 86.392 17.416C83.128 27.064 77.56 32.68 72.856 35.752C70.744 37.096 67.912 37.768 65.416 37.144C62.824 36.52 61.48 34.408 61.24 32.344C60.712 26.68 64.936 20.2 63.736 12.904C67.432 12.808 70.552 14.056 71.224 15.784ZM86.6699 12.472C90.6059 12.616 93.7739 13.768 94.1579 15.352C95.2139 20.056 86.8139 31.192 88.9739 36.616C84.1739 38.536 79.9499 37.624 79.9979 33.304C80.0459 28.312 86.7659 17.8 86.6699 12.472ZM96.3659 2.2C98.6219 3.496 98.8619 5.944 97.0379 8.296C95.2139 10.648 92.4779 11.368 90.2219 10.072C87.9179 8.728 87.6779 6.28 89.5019 3.928C91.3259 1.576 94.0619 0.855999 96.3659 2.2ZM103.918 31.624C107.326 31.576 109.726 30.28 111.742 28.552C113.998 29.56 108.958 37.432 100.846 37.432C92.2064 37.864 88.7504 32.392 90.5744 25.576C92.3984 18.712 98.9744 12.52 107.614 12.52C113.806 12.28 117.262 16.696 114.91 21.592C112.654 26.296 104.59 28.984 99.0704 28.744C99.6464 30.568 101.278 31.624 103.918 31.624ZM106.03 17.416C102.766 17.464 100.462 21.736 99.4544 24.328C102.574 23.944 108.19 22.792 108.19 19.336C108.19 17.992 107.374 17.416 106.03 17.416ZM119.633 27.448C114.977 25.48 113.249 21.496 115.457 17.704C117.137 14.824 120.593 12.952 126.881 12.568C132.737 12.184 135.953 14.584 134.705 17.992C133.361 21.544 128.657 21.304 128.705 20.872C128.993 19 128.897 17.032 126.065 16.888C124.721 16.792 123.569 17.272 123.089 18.472C122.177 20.728 125.249 21.784 126.785 22.552C132.641 25.432 133.745 29.416 130.865 33.064C128.225 36.376 124.097 37.768 118.721 37.624C112.913 37.48 108.545 34.792 110.513 30.808C112.289 27.256 117.761 27.928 117.665 28.36C117.377 30.232 117.329 31.96 119.057 32.728C120.497 33.4 121.841 32.536 122.417 31.672C122.945 30.808 123.569 29.176 119.633 27.448Z" fill="white"/>
<path d="M52.6 59.64C53.272 60.072 54.568 60.648 56.536 61.272C64.024 53.448 74.296 43.896 74.2 40.488C76.264 40.536 81.16 41.208 81.688 43.368C82.792 48.072 77.608 68.52 79.768 73.944C74.968 75.864 70.984 77.256 70.072 73.032C69.736 72.024 69.928 69.912 70.36 67.272C66.616 66.936 63.928 66.984 61.816 66.984C59.08 70.296 57.352 73.08 57.976 74.616C53.176 76.536 48.952 75.672 49 71.304C49 70.104 50.536 67.944 52.84 65.304C50.392 63.624 51.448 61.176 52.6 59.64ZM70.984 64.008C71.608 61.176 72.376 58.008 73.096 54.888C70.504 57.624 67.672 60.504 65.128 63.24C66.952 63.528 68.872 63.768 70.984 64.008ZM107.221 62.328C105.397 69.096 99.9254 75.432 92.4854 75.432C89.7494 75.576 88.0694 73.848 87.3494 71.304C85.2374 76.728 83.5574 81.528 84.5654 84.024C79.7654 85.944 75.5414 85.032 75.5894 80.712C75.6374 75.72 84.7574 59.88 85.0934 49.272C89.0294 49.416 92.8214 50.808 92.8214 52.392C92.8214 52.968 92.8214 53.544 92.7254 54.168C94.8854 51.912 97.3814 50.52 99.8774 50.52C105.973 50.28 109.045 55.56 107.221 62.328ZM91.3334 70.536C94.2134 70.488 97.2374 66.12 98.3894 63.624C99.9734 60.168 100.405 55.416 97.8134 55.416C94.3574 55.464 91.6214 59.688 90.3734 63.24C89.7494 65.064 88.1654 70.536 91.3334 70.536ZM132.631 62.328C130.807 69.096 125.335 75.432 117.895 75.432C115.159 75.576 113.479 73.848 112.759 71.304C110.647 76.728 108.967 81.528 109.975 84.024C105.175 85.944 100.951 85.032 100.999 80.712C101.047 75.72 110.167 59.88 110.503 49.272C114.439 49.416 118.231 50.808 118.231 52.392C118.231 52.968 118.231 53.544 118.135 54.168C120.295 51.912 122.791 50.52 125.287 50.52C131.383 50.28 134.455 55.56 132.631 62.328ZM116.743 70.536C119.623 70.488 122.647 66.12 123.799 63.624C125.383 60.168 125.815 55.416 123.223 55.416C119.767 55.464 117.031 59.688 115.783 63.24C115.159 65.064 113.575 70.536 116.743 70.536Z" fill="#EF4444"/>
</svg>
